<svg width="20" height="20" viewBox="0 0 20 20" fill="none" xmlns="http://www.w3.org/2000/svg">
<path d="M2.5 5.83334H5" stroke="#232E40" stroke-width="1.5" stroke-linecap="round" stroke-linejoin="round"/>
<path d="M2.5 14.1667H7.5" stroke="#232E40" stroke-width="1.5" stroke-linecap="round" stroke-linejoin="round"/>
<path d="M15 14.1667L17.5 14.1667" stroke="#232E40" stroke-width="1.5" stroke-linecap="round" stroke-linejoin="round"/>
<path d="M12.5 5.83334L17.5 5.83334" stroke="#232E40" stroke-width="1.5" stroke-linecap="round" stroke-linejoin="round"/>
<path d="M5 5.83334C5 5.05677 5 4.66848 5.12687 4.3622C5.29602 3.95382 5.62048 3.62936 6.02886 3.4602C6.33515 3.33334 6.72343 3.33334 7.5 3.33334C8.27657 3.33334 8.66485 3.33334 8.97114 3.4602C9.37952 3.62936 9.70398 3.95382 9.87313 4.3622C10 4.66848 10 5.05677 10 5.83334C10 6.60991 10 6.99819 9.87313 7.30447C9.70398 7.71286 9.37952 8.03731 8.97114 8.20647C8.66485 8.33334 8.27657 8.33334 7.5 8.33334C6.72343 8.33334 6.33515 8.33334 6.02886 8.20647C5.62048 8.03731 5.29602 7.71286 5.12687 7.30447C5 6.99819 5 6.60991 5 5.83334Z" stroke="#232E40" stroke-width="1.5"/>
<path d="M10 14.1667C10 13.3901 10 13.0018 10.1269 12.6955C10.296 12.2871 10.6205 11.9627 11.0289 11.7935C11.3351 11.6667 11.7234 11.6667 12.5 11.6667C13.2766 11.6667 13.6649 11.6667 13.9711 11.7935C14.3795 11.9627 14.704 12.2871 14.8731 12.6955C15 13.0018 15 13.3901 15 14.1667C15 14.9432 15 15.3315 14.8731 15.6378C14.704 16.0462 14.3795 16.3706 13.9711 16.5398C13.6649 16.6667 13.2766 16.6667 12.5 16.6667C11.7234 16.6667 11.3351 16.6667 11.0289 16.5398C10.6205 16.3706 10.296 16.0462 10.1269 15.6378C10 15.3315 10 14.9432 10 14.1667Z" stroke="#232E40" stroke-width="1.5"/>
</svg>
