<svg width="16" height="17" viewBox="0 0 16 17" fill="none" xmlns="http://www.w3.org/2000/svg">
<path d="M1.6665 8.49984C1.6665 5.51428 1.6665 4.02149 2.594 3.094C3.52149 2.1665 5.01428 2.1665 7.99984 2.1665C10.9854 2.1665 12.4782 2.1665 13.4057 3.094C14.3332 4.02149 14.3332 5.51428 14.3332 8.49984C14.3332 11.4854 14.3332 12.9782 13.4057 13.9057C12.4782 14.8332 10.9854 14.8332 7.99984 14.8332C5.01428 14.8332 3.52149 14.8332 2.594 13.9057C1.6665 12.9782 1.6665 11.4854 1.6665 8.49984Z" stroke="#6B7280" stroke-width="1.2"/>
<path d="M5 11.8332C6.55447 10.2051 9.42882 10.1284 11 11.8332M9.6634 6.83317C9.6634 7.75365 8.91614 8.49984 7.99435 8.49984C7.07257 8.49984 6.32531 7.75365 6.32531 6.83317C6.32531 5.9127 7.07257 5.1665 7.99435 5.1665C8.91614 5.1665 9.6634 5.9127 9.6634 6.83317Z" stroke="#6B7280" stroke-width="1.2" stroke-linecap="round"/>
</svg>
