<svg width="20" height="20" viewBox="0 0 20 20" fill="none" xmlns="http://www.w3.org/2000/svg">
  <g clip-path="url(#clip0_118_5329)">
    <path fill-rule="evenodd" clip-rule="evenodd" d="M9.16683 1.66665C9.16683 1.20641 9.53992 0.833313 10.0002 0.833313C15.0628 0.833313 19.1668 4.93737 19.1668 9.99998C19.1668 15.0626 15.0628 19.1666 10.0002 19.1666C4.93755 19.1666 0.833496 15.0626 0.833496 9.99998C0.833496 9.53974 1.20659 9.16665 1.66683 9.16665C2.12707 9.16665 2.50016 9.53974 2.50016 9.99998C2.50016 14.1421 5.85803 17.5 10.0002 17.5C14.1423 17.5 17.5002 14.1421 17.5002 9.99998C17.5002 5.85784 14.1423 2.49998 10.0002 2.49998C9.53993 2.49998 9.16683 2.12688 9.16683 1.66665ZM7.86211 1.78632C8.02613 2.21634 7.8105 2.69791 7.38049 2.86193C7.23987 2.91556 7.10119 2.97315 6.96459 3.03455C6.54481 3.22324 6.05155 3.0359 5.86286 2.61612C5.67417 2.19634 5.86151 1.70308 6.28129 1.51439C6.4472 1.43982 6.61566 1.36986 6.78651 1.3047C7.21652 1.14068 7.69809 1.35631 7.86211 1.78632ZM4.83625 3.30389C5.15217 3.63858 5.13695 4.166 4.80226 4.48191C4.69179 4.58619 4.58435 4.69364 4.48011 4.80414C4.16428 5.13891 3.63687 5.15426 3.3021 4.83843C2.96733 4.5226 2.95198 3.99519 3.26781 3.66042C3.39415 3.5265 3.52435 3.39627 3.65823 3.2699C3.99292 2.95398 4.52034 2.9692 4.83625 3.30389ZM2.61859 5.85832C3.03828 6.0472 3.2254 6.54054 3.03652 6.96024C2.97446 7.09814 2.9163 7.23816 2.86217 7.38015C2.69823 7.8102 2.21671 8.02593 1.78666 7.86199C1.35661 7.69805 1.14088 7.21652 1.30482 6.78647C1.3706 6.61392 1.44128 6.44379 1.51667 6.27626C1.70555 5.85656 2.19889 5.66945 2.61859 5.85832Z" fill="#232E40" />
    <path fill-rule="evenodd" clip-rule="evenodd" d="M6.91058 6.91075C7.23602 6.58531 7.76366 6.58531 8.08909 6.91075L9.99984 8.82149L11.9106 6.91075C12.236 6.58531 12.7637 6.58531 13.0891 6.91075C13.4145 7.23619 13.4145 7.76382 13.0891 8.08926L11.1783 10L13.0891 11.9107C13.4145 12.2362 13.4145 12.7638 13.0891 13.0893C12.7637 13.4147 12.236 13.4147 11.9106 13.0893L9.99984 11.1785L8.08909 13.0893C7.76366 13.4147 7.23602 13.4147 6.91058 13.0893C6.58514 12.7638 6.58514 12.2362 6.91058 11.9107L8.82133 10L6.91058 8.08926C6.58514 7.76382 6.58514 7.23619 6.91058 6.91075Z" fill="#232E40" />
  </g>
  <defs>
    <clipPath id="clip0_118_5329">
      <rect width="20" height="20" fill="white" />
    </clipPath>
  </defs>
</svg>