<svg width="16" height="17" viewBox="0 0 16 17" fill="none" xmlns="http://www.w3.org/2000/svg">
<path d="M10 6.8335C10 7.93807 9.10457 8.8335 8 8.8335C6.89543 8.8335 6 7.93807 6 6.8335C6 5.72893 6.89543 4.8335 8 4.8335C9.10457 4.8335 10 5.72893 10 6.8335Z" stroke="#6B7280" stroke-width="1.2"/>
<path d="M8 1.8335C10.7059 1.8335 13 4.11885 13 6.89143C13 9.70817 10.6685 11.6848 8.515 13.029C8.35806 13.1193 8.18058 13.1668 8 13.1668C7.81942 13.1668 7.64194 13.1193 7.485 13.029C5.3355 11.6717 3 9.7179 3 6.89143C3 4.11885 5.29413 1.8335 8 1.8335Z" stroke="#6B7280" stroke-width="1.2"/>
<path d="M12 13.8335C12 14.5699 10.2091 15.1668 8 15.1668C5.79086 15.1668 4 14.5699 4 13.8335" stroke="#6B7280" stroke-width="1.2" stroke-linecap="round"/>
</svg>
