<svg width="20" height="20" viewBox="0 0 20 20" fill="currentColor" xmlns="http://www.w3.org/2000/svg">
  <g clip-path="url(#clip0_165_1933)">
    <path d="M14.1216 2.6442C14.611 2.15481 14.8557 1.91011 15.1268 1.7931C15.5173 1.62451 15.9601 1.62451 16.3506 1.7931C16.6217 1.91011 16.8664 2.15481 17.3558 2.6442C17.8452 3.13359 18.0899 3.37829 18.2069 3.64936C18.3755 4.0399 18.3755 4.48269 18.2069 4.87323C18.0899 5.14431 17.8452 5.38901 17.3558 5.8784L13.1711 10.0631C12.1401 11.094 11.6246 11.6095 10.979 11.915C10.3334 12.2204 9.60786 12.292 8.15686 12.4352L7.5 12.5L7.56481 11.8431C7.70799 10.3921 7.77957 9.66663 8.08501 9.02099C8.39045 8.37534 8.90594 7.85985 9.93694 6.82886L14.1216 2.6442Z" stroke="#232E40" stroke-width="1.5" stroke-linejoin="round" />
    <path d="M5.00033 12.5H3.12533C2.31991 12.5 1.66699 13.1529 1.66699 13.9583C1.66699 14.7637 2.31991 15.4167 3.12533 15.4167H11.042C11.8474 15.4167 12.5003 16.0696 12.5003 16.875C12.5003 17.6804 11.8474 18.3333 11.042 18.3333H9.16699" stroke="#232E40" stroke-width="1.5" stroke-linecap="round" stroke-linejoin="round" />
  </g>
  <defs>
    <clipPath id="clip0_165_1933">
      <rect width="20" height="20" fill="white" />
    </clipPath>
  </defs>
</svg>