<svg width="138" height="36" viewBox="0 0 138 36" fill="none" xmlns="http://www.w3.org/2000/svg">
<path d="M28.605 7.395C30.0684 8.85371 31.2126 10.6007 31.965 12.525L26.49 18L12.525 4.035C15.2416 2.97045 18.2098 2.72131 21.0658 3.3181C23.9219 3.91489 26.5419 5.33171 28.605 7.395V7.395ZM4.035 23.475C4.75369 25.3161 5.82912 26.9969 7.19949 28.4211C8.56986 29.8452 10.2082 30.9844 12.0202 31.7734C13.8323 32.5623 15.7824 32.9854 17.7585 33.0183C19.7346 33.0512 21.6977 32.6932 23.535 31.965L9.51 18L4.035 23.475Z" fill="#3276FF"/>
<path opacity="0.3" d="M12.525 4.035L18 9.51L4.035 23.475C3.30679 21.6377 2.94884 19.6746 2.98172 17.6985C3.01461 15.7224 3.43768 13.7723 4.22662 11.9602C5.01557 10.1482 6.15483 8.50986 7.57895 7.13949C9.00306 5.76912 10.6839 4.69369 12.525 3.975V4.035ZM18 26.535L23.475 32.01C25.3161 31.2913 26.9969 30.2159 28.4211 28.8455C29.8452 27.4751 30.9844 25.8368 31.7734 24.0248C32.5623 22.2127 32.9854 20.2626 33.0183 18.2865C33.0512 16.3104 32.6932 14.3473 31.965 12.51L18 26.535Z" fill="#3276FF"/>
<path d="M64.6441 24V12H66.7657V17.1598H68.48L71.8746 12H74.2848L70.2791 17.8727L74.2848 24H71.8237L68.5818 19.0948H66.7657V24H64.6441Z" fill="#232E40"/>
<path d="M53.1242 24V12H57.8597C58.4707 12 59.0478 12.0622 59.591 12.1867C60.1341 12.2999 60.615 12.5035 61.0337 12.7977C61.4523 13.0806 61.7805 13.471 62.0181 13.9689C62.2557 14.4668 62.3745 15.0835 62.3745 15.819C62.3745 16.43 62.267 16.9675 62.0521 17.4314C61.8371 17.8953 61.5372 18.2857 61.1525 18.6025C60.7791 18.9194 60.3321 19.1627 59.8116 19.3324L62.4424 24H60.0662L57.7069 19.6719H55.2458V24H53.1242ZM55.2458 17.7878H57.5711C57.9559 17.7878 58.3067 17.7595 58.6235 17.703C58.9516 17.6351 59.2345 17.5276 59.4721 17.3805C59.7211 17.2334 59.9078 17.0354 60.0323 16.7864C60.168 16.5262 60.2416 16.198 60.2529 15.802C60.2529 15.3267 60.1511 14.9533 59.9474 14.6818C59.755 14.4102 59.4721 14.2178 59.0987 14.1047C58.7366 13.9915 58.301 13.9349 57.7918 13.9349H55.2458V17.7878Z" fill="#232E40"/>
<path d="M40 24L44.5997 12H47.1287L51.7115 24H49.4201L48.6223 21.7765H43.0891L42.2744 24H40ZM43.768 19.8586H47.9265L45.8557 14.1386L43.768 19.8586Z" fill="#232E40"/>
</svg>
