<svg width="32" height="31" viewBox="0 0 32 31" fill="none" xmlns="http://www.w3.org/2000/svg">
<path d="M26.6047 4.395C28.068 5.85371 29.2122 7.60066 29.9647 9.525L24.4897 15L10.5247 1.035C13.2413 -0.029554 16.2094 -0.278692 19.0655 0.318101C21.9216 0.914894 24.5416 2.33171 26.6047 4.395ZM2.03467 20.475C2.75336 22.3161 3.82879 23.9969 5.19916 25.4211C6.56953 26.8452 8.20782 27.9844 10.0199 28.7734C11.832 29.5623 13.7821 29.9854 15.7582 30.0183C17.7342 30.0512 19.6974 29.6932 21.5347 28.965L7.50967 15L2.03467 20.475Z" fill="#3276FF"/>
<path opacity="0.3" d="M10.5248 1.03461L15.9998 6.50961L2.03485 20.4746C1.30663 18.6373 0.948684 16.6742 0.981569 14.6981C1.01445 12.722 1.43753 10.7719 2.22647 8.95983C3.01542 7.14777 4.15468 5.50947 5.57879 4.1391C7.0029 2.76873 8.68379 1.6933 10.5248 0.974609V1.03461ZM15.9998 23.5346L21.4748 29.0096C23.3159 28.2909 24.9968 27.2155 26.4209 25.8451C27.845 24.4747 28.9843 22.8365 29.7732 21.0244C30.5622 19.2123 30.9852 17.2622 31.0181 15.2861C31.051 13.31 30.6931 11.3469 29.9648 9.50961L15.9998 23.5346Z" fill="#3276FF"/>
</svg>
