<svg width="20" height="20" viewBox="0 0 20 20" fill="none" xmlns="http://www.w3.org/2000/svg">
<g clip-path="url(#clip0_97_144)">
<path d="M1.66663 7.08333C1.66663 4.73627 1.66663 3.56275 2.30295 2.76482C2.43912 2.59407 2.59403 2.43916 2.76478 2.30299C3.56271 1.66666 4.73624 1.66666 7.08329 1.66666C9.43035 1.66666 10.6039 1.66666 11.4018 2.30299C11.5726 2.43916 11.7275 2.59407 11.8636 2.76482C12.5 3.56275 12.5 4.73627 12.5 7.08333C12.5 9.43039 12.5 10.6039 11.8636 11.4018C11.7275 11.5726 11.5726 11.7275 11.4018 11.8637C10.6039 12.5 9.43035 12.5 7.08329 12.5C4.73624 12.5 3.56271 12.5 2.76478 11.8637C2.59403 11.7275 2.43912 11.5726 2.30295 11.4018C1.66663 10.6039 1.66663 9.43039 1.66663 7.08333Z" stroke="#232E40" stroke-width="1.5"/>
<path d="M7.5 12.9167C7.5 10.5696 7.5 9.39608 8.13632 8.59815C8.27249 8.42741 8.42741 8.27249 8.59815 8.13632C9.39608 7.5 10.5696 7.5 12.9167 7.5C15.2637 7.5 16.4373 7.5 17.2352 8.13632C17.4059 8.27249 17.5608 8.42741 17.697 8.59815C18.3333 9.39608 18.3333 10.5696 18.3333 12.9167C18.3333 15.2637 18.3333 16.4373 17.697 17.2352C17.5608 17.4059 17.4059 17.5608 17.2352 17.697C16.4373 18.3333 15.2637 18.3333 12.9167 18.3333C10.5696 18.3333 9.39608 18.3333 8.59815 17.697C8.42741 17.5608 8.27249 17.4059 8.13632 17.2352C7.5 16.4373 7.5 15.2637 7.5 12.9167Z" stroke="#232E40" stroke-width="1.5"/>
</g>
<defs>
<clipPath id="clip0_97_144">
<rect width="20" height="20" fill="white"/>
</clipPath>
</defs>
</svg>
