<svg width="24" height="24" viewBox="0 0 24 24" fill="none" xmlns="http://www.w3.org/2000/svg">
<path d="M20.7583 19.682C22.0005 18.364 22.0005 16.2426 22.0005 12C22.0005 7.75736 22.0005 5.63604 20.7583 4.31802C19.516 3 17.5167 3 13.518 3C11.867 3 10.5568 3 9.5 3.09278L9.5 20.9072C10.5568 21 11.867 21 13.518 21C17.5167 21 19.516 21 20.7583 19.682Z" fill="#E9E9E9" fill-opacity="0.6"/>
<path d="M4.08686 4.319C2 5.63702 2 7.75834 2 12.001C2 16.2436 2 18.3649 4.08686 19.683C5.31207 20.4568 6.97567 20.7763 9.5 20.9082L9.5 3.09376C6.97567 3.22569 5.31206 3.54519 4.08686 4.319Z" fill="white"/>
<path d="M2 12C2 8.25027 2 6.3754 2.95491 5.06107C3.26331 4.6366 3.6366 4.26331 4.06107 3.95491C5.3754 3 7.25027 3 11 3H13C16.7497 3 18.6246 3 19.9389 3.95491C20.3634 4.26331 20.7367 4.6366 21.0451 5.06107C22 6.3754 22 8.25027 22 12C22 15.7497 22 17.6246 21.0451 18.9389C20.7367 19.3634 20.3634 19.7367 19.9389 20.0451C18.6246 21 16.7497 21 13 21H11C7.25027 21 5.3754 21 4.06107 20.0451C3.6366 19.7367 3.26331 19.3634 2.95491 18.9389C2 17.6246 2 15.7497 2 12Z" stroke="#777E90" stroke-width="1.5" stroke-linejoin="round"/>
<path d="M9.5 3.5L9.5 20.5" stroke="#777E90" stroke-width="1.5" stroke-linejoin="round"/>
<path d="M5 7C5 7 5.91421 7 6.5 7" stroke="#777E90" stroke-width="1.5" stroke-linecap="round" stroke-linejoin="round"/>
<path d="M5 11H6.5" stroke="#777E90" stroke-width="1.5" stroke-linecap="round" stroke-linejoin="round"/>
<path d="M17 10L15.7735 11.0572C15.2578 11.5016 15 11.7239 15 12C15 12.2761 15.2578 12.4984 15.7735 12.9428L17 14" stroke="#777E90" stroke-width="1.5" stroke-linecap="round" stroke-linejoin="round"/>
</svg>
