<svg width="24" height="24" viewBox="0 0 24 24" fill="none" xmlns="http://www.w3.org/2000/svg">
<rect x="2" y="3" width="20" height="18" rx="5" fill="#E9E9E9"/>
<rect x="2" y="3" width="20" height="18" rx="5" stroke="#232E40" stroke-width="1.5" stroke-linejoin="round"/>
<path d="M14 9H18" stroke="#232E40" stroke-width="1.5" stroke-linecap="round"/>
<path d="M14 12.5H17" stroke="#232E40" stroke-width="1.5" stroke-linecap="round"/>
<path d="M5 16C6.20831 13.4189 10.7122 13.2491 12 16" stroke="#232E40" stroke-width="1.5" stroke-linecap="round" stroke-linejoin="round"/>
<path d="M10.5 9C10.5 10.1046 9.60457 11 8.5 11C7.39543 11 6.5 10.1046 6.5 9C6.5 7.89543 7.39543 7 8.5 7C9.60457 7 10.5 7.89543 10.5 9Z" fill="white"/>
<path d="M10.5 9C10.5 10.1046 9.60457 11 8.5 11C7.39543 11 6.5 10.1046 6.5 9C6.5 7.89543 7.39543 7 8.5 7C9.60457 7 10.5 7.89543 10.5 9Z" stroke="#232E40" stroke-width="1.5"/>
</svg>
